<?xml version="1.0" standalone="no"?><!DOCTYPE svg PUBLIC "-//W3C//DTD SVG 1.1//EN" "http://www.w3.org/Graphics/SVG/1.1/DTD/svg11.dtd"><svg t="1644754560260" class="icon" viewBox="0 0 1024 1024" version="1.1" xmlns="http://www.w3.org/2000/svg" p-id="1373" xmlns:xlink="http://www.w3.org/1999/xlink" width="200" height="200"><defs><style type="text/css"></style></defs><path d="M512 1024c282.766222 0 512-229.233778 512-512S794.766222 0 512 0 0 229.233778 0 512s229.233778 512 512 512z" fill="#8247E5" p-id="1374"></path><path d="M681.472 402.460444c-12.288-7.139556-28.245333-7.139556-41.756444 0l-95.772445 54.784-65.109333 35.697778-95.772445 54.784c-12.288 7.139556-28.245333 7.139556-41.756444 0l-76.145778-42.865778c-12.288-7.139556-20.878222-20.252444-20.878222-34.531555v-84.536889c0-14.279111 7.395556-27.392 20.878222-34.531556l74.922667-41.671111c12.259556-7.139556 28.245333-7.139556 41.756444 0l74.894222 41.671111c12.288 7.139556 20.878222 20.252444 20.878223 34.531556v54.755556l65.080889-36.892445v-54.784a38.4 38.4 0 0 0-20.878223-34.531555l-138.752-78.592c-12.288-7.111111-28.245333-7.111111-41.756444 0l-141.226667 78.592a38.4 38.4 0 0 0-20.878222 34.531555v158.378667c0 14.279111 7.367111 27.363556 20.878222 34.531555l141.226667 78.563556c12.288 7.168 28.245333 7.168 41.756444 0l95.772445-53.560889 65.080889-36.920889 95.800889-53.589333c12.288-7.111111 28.245333-7.111111 41.756444 0l74.922667 41.671111c12.259556 7.168 20.878222 20.252444 20.878222 34.531555v84.536889c0 14.307556-7.395556 27.392-20.906667 34.531556l-74.894222 42.865778c-12.288 7.168-28.245333 7.168-41.756444 0l-74.922667-41.671111c-12.259556-7.111111-20.878222-20.224-20.878222-34.531556v-54.755556l-65.080889 36.892445v54.784c0 14.279111 7.395556 27.392 20.878222 34.531555l141.226667 78.592c12.288 7.111111 28.245333 7.111111 41.756444 0l141.226667-78.592c12.288-7.139556 20.878222-20.252444 20.878222-34.531555v-158.350222a38.4 38.4 0 0 0-20.878222-34.531556l-142.449778-79.786667z" fill="#FFFFFF" p-id="1375"></path></svg>