<?xml version="1.0" standalone="no"?><!DOCTYPE svg PUBLIC "-//W3C//DTD SVG 1.1//EN" "http://www.w3.org/Graphics/SVG/1.1/DTD/svg11.dtd"><svg t="1637658651982" class="icon" viewBox="0 0 1638 1024" version="1.1" xmlns="http://www.w3.org/2000/svg" p-id="3637" xmlns:xlink="http://www.w3.org/1999/xlink" width="319.921875" height="200"><defs><style type="text/css"></style></defs><path d="M335.418086 196.452435c267.179408-261.936581 700.408996-261.936581 967.547444 0l32.153279 31.538885a33.054389 33.054389 0 0 1 0 47.390246l-109.9765 107.846602a17.366866 17.366866 0 0 1-24.166159 0l-44.277317-43.417166c-186.366136-182.679773-488.647914-182.679773-675.01405 0l-47.390246 46.489135a17.366866 17.366866 0 0 1-24.166158 0L300.110919 278.453535a33.054389 33.054389 0 0 1 0-47.431205l35.307167-34.569895z m1195.037009 222.984011l97.893422 95.96832a33.054389 33.054389 0 0 1 0 47.431206L1186.927011 995.574044a34.692773 34.692773 0 0 1-48.373277 0l-313.340866-307.115009a8.683433 8.683433 0 0 0-12.083079 0l-313.299907 307.115009a34.692773 34.692773 0 0 1-48.332317 0L9.99414 562.795012a33.054389 33.054389 0 0 1 0-47.431206l97.893421-95.96832a34.692773 34.692773 0 0 1 48.332317 0l313.340866 307.115009c3.358686 3.276767 8.765352 3.276767 12.08308 0l313.340866-307.115009a34.692773 34.692773 0 0 1 48.332317 0l313.340866 307.115009c3.317727 3.276767 8.724393 3.276767 12.08308 0l313.340866-307.115009a34.692773 34.692773 0 0 1 48.332317 0z" fill="#3B99FC" p-id="3638"></path></svg>